<svg xmlns="http://www.w3.org/2000/svg" version="1.1" xmlns:xlink="http://www.w3.org/1999/xlink" xmlns:svgjs="http://svgjs.dev/svgjs" width="1000" height="1000" viewBox="0 0 1000 1000"><rect width="1000" height="1000" fill="#c56e33"></rect><g transform="matrix(0.7,0,0,0.7,150,106.25)"><svg viewBox="0 0 320 360" data-background-color="#c56e33" preserveAspectRatio="xMidYMid meet" height="1125" width="1000" xmlns="http://www.w3.org/2000/svg" xmlns:xlink="http://www.w3.org/1999/xlink"><g id="tight-bounds" transform="matrix(1,0,0,1,0,0)"><svg viewBox="0 0 320 360" height="360" width="320"><g><svg></svg></g><g><svg viewBox="0 0 320 360" height="360" width="320"><g><path xmlns="http://www.w3.org/2000/svg" d="M219.58 41.008c0.707 0 6.365 2.829 9.547 3.89-1.061 0.354-3.536-0.707-6.365-1.768 0.707 0 2.122 0.354 3.536 1.06-0.707-0.707-6.011-2.475-6.718-3.182M166.895 30.047c1.061-0.354 13.436 1.414 19.094 1.768 0.354-0.354-0.707-0.354-2.122-0.707 1.768-0.354 5.304 0.707 7.779 1.06-7.425 0.354-15.558-1.768-22.629-1.06-2.475 0-0.707-0.707-2.122-1.061M156.641 30.047c6.365 0 11.315 0 2.121 0.707-1.061-0.354-2.475-0.354-2.121-0.707M256.707 59.395c0.707 0 3.536 3.182 4.95 4.243-0.354 0.354-3.182-2.475-4.596-3.536 0.354 0.354 0 0-0.354-0.707M249.635 54.798c-2.829-2.475-3.889-2.475-4.243-3.889 2.475 1.414 4.243 2.829 4.243 3.889M204.022 32.522c0.354-0.354 1.061 0.354 2.829 0.707-2.122-0.354-1.768 0-1.061 0.707-2.475-0.354-3.182-0.707-2.475-1.414 1.414 0.707 1.768 0.354 0.707 0M103.602 36.765c0-0.354 1.414-1.061 2.475-1.414-1.061 0.707-0.707 1.061 1.061 0.353 0 0.354-2.122 1.061-3.536 1.768 0.707-0.354 1.414-1.414 0-0.707M211.094 28.986c-1.061 0.354-4.95-1.768-8.84-2.475-2.122-0.707 8.486 1.768 8.84 2.475M2.475 203.66c2.122 8.84 0.707 8.486 0 0M2.829 150.621c0.354-1.414 0.707-5.304 1.06-4.95-1.061 8.486-2.829 12.376-3.182 18.74 1.061-5.657-0.354 3.182-0.707 5.304 0.354 2.829 0.354-1.768 1.061-1.06 0.707 1.061-1.414 15.912-0.707 7.779-0.707 7.425 0 15.558 1.414 17.679-1.768 11.315 7.072 36.773 8.84 42.077 0.354 0.354 0-1.768 0.707-0.353 0.707 4.597 3.889 7.779 4.95 12.729 1.061 1.414 5.304 9.193 6.011 10.962 1.414 2.829 2.122 2.475 3.536 5.303 4.243 8.133 10.961 15.912 17.326 23.337 20.508 24.044 51.978 43.845 86.984 50.918 35.006 7.425 71.779 2.122 100.419-11.669 1.768-1.061 1.414-1.414 3.536-2.122 9.901-3.182 21.923-13.436 28.641-17.326 3.182-3.536 11.669-9.547 12.73-13.082 6.011-4.95 12.022-13.083 15.204-18.387 1.768-2.829 3.182-2.829 3.889-4.597-0.354 0 5.657-7.425 7.426-11.668-0.707 0-1.768 2.122-1.768 0 12.729-24.398 19.801-57.282 15.911-79.912 0.707 27.934-6.365 59.05-19.801 78.851-6.011 12.729-18.387 26.519-29.701 36.42-1.768 1.768-3.536 3.889-5.658 5.304-6.718 5.657-14.144 10.254-21.922 14.497-18.387 10.254-38.895 19.094-62.94 19.447 41.37-3.536 78.497-24.398 99.006-49.856-15.558 15.204-22.276 21.215-39.602 30.055-1.414 2.475-13.083 7.425-20.862 9.547 4.597-2.122 14.144-5.657 17.326-8.486-25.812 12.376-54.453 19.448-81.326 15.558 10.254 0 24.751 0.354 38.541-2.121 2.122-0.707 3.182-1.414 5.658-1.768 26.873-6.011 52.685-19.094 71.072-37.481-10.608 9.547-26.519 20.862-36.774 24.398 9.547-5.304 26.873-15.558 32.53-23.337-11.315 11.315-32.53 22.63-45.966 27.58-2.122 0.354 1.414-1.414-2.122 0-4.243 1.061-2.475 1.061-3.536 1.768-16.265 4.597-35.006 8.486-50.563 7.072-2.829-0.354-3.889-1.061-6.365-1.061-2.829-0.354-5.304-0.354-8.486-0.354-12.376-1.414-25.812-6.365-35.713-10.607-5.304-2.475-10.608-4.243-15.912-7.426-4.243-2.475-7.779-5.304-11.314-8.132-13.436-9.901-24.751-19.801-35.36-33.945-19.094-26.519-28.994-59.757-27.58-92.641 1.414-32.884 14.497-65.061 35.359-88.752-1.061 1.061 1.414-2.475 3.536-4.596 0 0.707-0.354 1.768 2.122-0.707 2.122-2.475-0.707-0.707 0.353-2.122 21.923-24.044 60.111-43.492 99.36-44.199 1.414-1.061 3.889-2.475 6.718-1.768 0 0.354-1.768 0.354-1.768 0.354 3.889-0.354 7.425-0.354 9.193 0.353 0.354-0.354-1.414-0.707 0-0.707 2.475 0.707 3.182 0 4.597 0.707-1.061 0-2.122 0-2.829 0.354 8.84 0 14.497 2.122 23.337 2.829-4.597-1.061-5.657-1.061-9.193-2.122 3.889 0.707 5.657 1.414 7.425 1.061-0.707 0-0.354-1.061 0.354-0.707 7.072 1.768 7.779 2.475 15.204 4.95 0.707-0.707-3.182-1.061-4.243-2.122 7.072 2.475 13.436 4.243 17.68 7.072-1.414-1.061-5.657-2.475-8.84-3.889-0.354 0.354 1.061 0.707 1.414 1.414-3.536-1.768-8.486-3.536-13.436-4.243 4.243 1.061 7.072 2.475 8.84 3.182-3.889-0.707-8.84-3.182-14.498-4.243 9.193 2.829 26.519 9.193 37.127 14.851-3.889-2.475-8.486-4.243-10.961-5.657 2.122 0.354 4.597 1.768 4.597 1.06 2.475 1.061 5.657 3.536 7.425 3.89-3.182-2.122-9.547-5.304-11.668-6.365 26.519 12.022 50.21 32.177 65.414 57.989 1.414 2.475 3.536 8.133 5.304 8.84-0.354-1.768-1.768-2.829-3.182-5.657 0.707 0 0.707-1.061 0-2.122-1.414-1.768 0 1.414-1.415-0.354-6.365-11.669-14.144-21.923-26.165-33.237 6.718 6.365 1.768 1.768 0.353-0.354 9.193 8.133 19.801 21.923 24.398 28.995-0.707-1.061-1.061-1.768-0.707-1.768 8.486 14.497 13.79 27.58 19.094 46.32 0.354 0.354 0-1.414 0.707-0.353 3.536 14.851 4.597 27.227 4.243 38.541 2.829-19.094-3.536-48.796-14.851-72.133-1.414-2.829-1.414-0.707-2.829-3.889 0-1.061-1.061-3.182-1.768-4.597-14.144-23.337-31.47-39.956-51.978-53.038 1.414 0.707 4.243 2.829 4.244 2.475-38.188-25.105-82.387-28.641-118.807-20.862-2.475 1.061-3.536 2.122-6.365 3.536 5.304-1.768 8.486-2.122 13.437-3.183 1.061-1.061-4.597 0.354-2.122-0.707 0.354 0.354 4.95-0.707 6.011-0.353 0 0.354-1.414 0.707-1.768 1.06 11.669-2.475 23.691-2.829 33.945-2.121-6.011 0.354-16.972-0.707-20.508 1.061 3.536-0.354 8.486-0.707 11.668-0.354-4.243 0-12.022 0.354-15.558 0.707-0.354-0.354 5.657-1.061 1.768-1.06-1.768 0.354-4.597 0.354-5.657 1.414-30.409 2.829-60.111 18.74-80.973 37.481-4.243 3.536-9.193 7.425-12.375 11.314-7.779 8.84-12.729 17.68-18.387 25.459 3.536-7.425 11.315-18.74 20.508-28.287 9.193-9.547 19.094-17.68 24.398-21.923 0 1.414 8.486-5.304 11.669-7.425-2.122 1.768 1.414-0.707 2.121-0.354 11.315-6.718 20.508-9.193 30.763-13.083-2.475 0.707-4.597 1.414-4.951 1.061 2.475-0.707 3.889-1.414 3.536-1.768-9.901 2.829-25.459 9.547-37.834 16.972 22.276-15.204 50.564-24.398 78.497-24.751 27.934-0.707 55.16 6.365 76.729 17.68 14.497 6.365 28.287 18.033 39.249 29.348 3.182 2.829 0.707-0.707 5.304 4.243-1.414-0.707-2.475-1.414-0.707 0.707 2.829 3.182-0.707-2.475 3.889 3.182-0.354 0-1.768-1.768-1.768-1.061 12.376 10.961 21.923 30.762 27.58 43.846-1.414-5.304-4.95-12.729-7.779-18.033 8.486 15.558 11.315 24.751 14.851 38.541 1.414 1.061-0.707-4.95 0.707-2.121 0.354 2.122 0.707 8.84 2.122 9.9-1.061-6.718-2.829-14.851-4.243-16.265 1.061 0.707-1.768-8.133-3.536-10.254-0.707-5.657-5.657-15.558-9.901-22.984-15.204-29.702-42.431-54.099-72.839-67.536 0-0.707-1.768-1.414-2.476-2.121-30.055-12.729-66.122-16.265-100.773-8.133-35.006 8.486-67.889 28.641-91.227 57.636 1.061-3.536 9.901-10.254 10.255-13.083-10.254 10.961-21.215 25.459-28.641 41.016-7.779 15.558-12.022 31.47-13.79 43.138" fill="#ffffff" fill-rule="nonzero" stroke="none" stroke-width="1" stroke-linecap="butt" stroke-linejoin="miter" stroke-miterlimit="10" stroke-dasharray="" stroke-dashoffset="0" font-family="none" font-weight="none" font-size="none" text-anchor="none" style="mix-blend-mode: normal" data-fill-palette-color="tertiary"></path></g><g transform="matrix(1,0,0,1,48.000000000000014,156.2944477161464)"><svg viewBox="0 0 223.99999999999997 47.411104567707156" height="47.411104567707156" width="223.99999999999997"><g><svg viewBox="0 0 223.99999999999997 47.411104567707156" height="47.411104567707156" width="223.99999999999997"><g><svg viewBox="0 0 223.99999999999997 47.411104567707156" height="47.411104567707156" width="223.99999999999997"><g transform="matrix(1,0,0,1,0,29.301964662025597)"><svg viewBox="0 0 223.99999999999997 18.10913990568156" height="18.10913990568156" width="223.99999999999997"><g id="textblocktransform"><svg viewBox="0 0 223.99999999999997 18.10913990568156" height="18.10913990568156" width="223.99999999999997" id="textblock"><g><svg viewBox="0 0 223.99999999999997 18.10913990568156" height="18.10913990568156" width="223.99999999999997"><g transform="matrix(1,0,0,1,0,0)"><svg width="223.99999999999997" viewBox="4.949999809265137 -35.5 445.2599792480469 36" height="18.10913990568156" data-palette-color="#ffffff"><path d="M20.15-18.4L17.35-16.8 16.6-18.1 19.4-19.7Q22.85-21.6 22.85-25.75L22.85-25.75Q22.85-33.5 11.05-33.5L11.05-33.5 6.45-33.5 6.45 0 4.95 0 4.95-35 11.05-35Q17.65-35 21-32.58 24.35-30.15 24.35-25.75L24.35-25.75Q24.35-20.75 20.15-18.4L20.15-18.4ZM45.65-27.48Q43.95-28 41.45-28 38.95-28 37.25-27.48 35.55-26.95 34.12-25.53 32.7-24.1 32-21.38 31.3-18.65 31.3-14.5 31.3-10.35 32-7.63 32.7-4.9 34.12-3.48 35.55-2.05 37.25-1.53 38.95-1 41.45-1 43.95-1 45.65-1.53 47.35-2.05 48.77-3.48 50.2-4.9 50.9-7.63 51.6-10.35 51.6-14.5 51.6-18.65 50.9-21.38 50.2-24.1 48.77-25.53 47.35-26.95 45.65-27.48ZM50.4-3.05Q47.7 0.5 41.45 0.5 35.2 0.5 32.5-3.05 29.8-6.6 29.8-14.5 29.8-22.4 32.5-25.95 35.2-29.5 41.45-29.5 47.7-29.5 50.4-25.95 53.1-22.4 53.1-14.5 53.1-6.6 50.4-3.05ZM73.55-14.55L73.55-14.55 80.34 0 78.69 0 71.69-15Q71.8-15.05 72.57-15.43 73.34-15.8 73.64-15.98 73.94-16.15 74.64-16.6 75.34-17.05 75.69-17.48 76.05-17.9 76.47-18.48 76.89-19.05 77.09-19.78 77.3-20.5 77.3-21.35L77.3-21.35Q77.3-24.5 74.3-26 71.3-27.5 66.84-27.5L66.84-27.5 62.84-27.5 62.84 0 61.34 0 61.34-29 66.84-29Q72.75-29 75.77-26.95 78.8-24.9 78.8-21.35L78.8-21.35Q78.8-19.05 77.25-17.28 75.69-15.5 73.55-14.55ZM83.39-29L105.89-29 105.89-27.5 95.39-27.5 95.39 0 93.89 0 93.89-27.5 83.39-27.5 83.39-29ZM114.29 0L114.29-1.5 130.59-1.5 120.34-25.65 109.44 0 107.84 0 120.34-29.5 132.84 0 114.29 0ZM140.04-1.5L155.24-1.5 155.24 0 138.54 0 138.54-29 140.04-29 140.04-1.5ZM179.29-3.95L180.39-2.95Q177.64 0.5 171.39 0.5 165.14 0.5 162.44-3.05 159.74-6.6 159.74-14.5 159.74-22.4 162.44-25.95 165.14-29.5 171.39-29.5L171.39-29.5Q178.64-29.5 181.24-24.75L181.24-24.75 168.99-14.5 166.64-14.5 179.29-25.05Q177.09-28 171.39-28L171.39-28Q168.89-28 167.19-27.48 165.49-26.95 164.06-25.53 162.64-24.1 161.94-21.38 161.24-18.65 161.24-14.5 161.24-10.35 161.94-7.63 162.64-4.9 164.06-3.48 165.49-2.05 167.19-1.53 168.89-1 171.39-1L171.39-1Q177.09-1 179.29-3.95L179.29-3.95ZM202.28-26.35L202.28-26.35Q202.28-31.2 204.73-33.35 207.18-35.5 212.68-35.5L212.68-35.5Q216.53-35.5 218.88-33.5 221.23-31.5 222.28-27.4L222.28-27.4 217.63-23.9 215.18-23.9 220.58-27.95Q219.53-31.3 217.56-32.65 215.58-34 212.68-34L212.68-34Q210.68-34 209.31-33.75 207.93-33.5 206.56-32.77 205.18-32.05 204.48-30.45 203.78-28.85 203.78-26.35L203.78-26.35Q203.78-24.15 205.81-22.45 207.83-20.75 210.73-19.55 213.63-18.35 216.56-17.1 219.48-15.85 221.51-13.9 223.53-11.95 223.53-9.4L223.53-9.4Q223.53-4.4 221.06-1.95 218.58 0.5 212.58 0.5L212.58 0.5Q207.68 0.5 204.88-1.48 202.08-3.45 201.03-7.6L201.03-7.6 202.43-8.2Q203.43-4.15 205.86-2.58 208.28-1 212.58-1L212.58-1Q217.38-1 219.71-2.85 222.03-4.7 222.03-9.4L222.03-9.4Q222.03-11.6 220.01-13.3 217.98-15 215.06-16.2 212.13-17.4 209.23-18.65 206.33-19.9 204.31-21.85 202.28-23.8 202.28-26.35ZM249.48-3.95L250.58-2.95Q247.83 0.5 241.58 0.5 235.33 0.5 232.63-3.05 229.93-6.6 229.93-14.5 229.93-22.4 232.63-25.95 235.33-29.5 241.58-29.5L241.58-29.5Q248.83-29.5 251.43-24.75L251.43-24.75 239.18-14.5 236.83-14.5 249.48-25.05Q247.28-28 241.58-28L241.58-28Q239.08-28 237.38-27.48 235.68-26.95 234.25-25.53 232.83-24.1 232.13-21.38 231.43-18.65 231.43-14.5 231.43-10.35 232.13-7.63 232.83-4.9 234.25-3.48 235.68-2.05 237.38-1.53 239.08-1 241.58-1L241.58-1Q247.28-1 249.48-3.95L249.48-3.95ZM260.08 0L258.58 0 258.58-29 260.08-29 276.38-2.75 276.38-29 277.88-29 277.88 0 276.38 0 260.08-26.3 260.08 0ZM301.97-27.48Q300.27-28 297.77-28 295.27-28 293.57-27.48 291.87-26.95 290.45-25.53 289.02-24.1 288.32-21.38 287.62-18.65 287.62-14.5 287.62-10.35 288.32-7.63 289.02-4.9 290.45-3.48 291.87-2.05 293.57-1.53 295.27-1 297.77-1 300.27-1 301.97-1.53 303.67-2.05 305.1-3.48 306.52-4.9 307.22-7.63 307.92-10.35 307.92-14.5 307.92-18.65 307.22-21.38 306.52-24.1 305.1-25.53 303.67-26.95 301.97-27.48ZM306.72-3.05Q304.02 0.5 297.77 0.5 291.52 0.5 288.82-3.05 286.12-6.6 286.12-14.5 286.12-22.4 288.82-25.95 291.52-29.5 297.77-29.5 304.02-29.5 306.72-25.95 309.42-22.4 309.42-14.5 309.42-6.6 306.72-3.05ZM318.67 0L317.17 0 317.17-14.5Q317.17-22.4 319.9-25.95 322.62-29.5 328.82-29.5L328.82-29.5Q336.07-29.5 338.67-24.75L338.67-24.75 328.22-16 338.87-16 338.87-14.5 324.07-14.5 336.72-25.05Q334.52-28 328.82-28L328.82-28Q326.32-28 324.62-27.48 322.92-26.95 321.5-25.53 320.07-24.1 319.37-21.38 318.67-18.65 318.67-14.5L318.67-14.5 318.67 0ZM360.97-27.48Q359.27-28 356.77-28 354.27-28 352.57-27.48 350.87-26.95 349.44-25.53 348.02-24.1 347.32-21.38 346.62-18.65 346.62-14.5 346.62-10.35 347.32-7.63 348.02-4.9 349.44-3.48 350.87-2.05 352.57-1.53 354.27-1 356.77-1 359.27-1 360.97-1.53 362.67-2.05 364.09-3.48 365.52-4.9 366.22-7.63 366.92-10.35 366.92-14.5 366.92-18.65 366.22-21.38 365.52-24.1 364.09-25.53 362.67-26.95 360.97-27.48ZM365.72-3.05Q363.02 0.5 356.77 0.5 350.52 0.5 347.82-3.05 345.12-6.6 345.12-14.5 345.12-22.4 347.82-25.95 350.52-29.5 356.77-29.5 363.02-29.5 365.72-25.95 368.42-22.4 368.42-14.5 368.42-6.6 365.72-3.05ZM378.17 0L376.67 0 376.67-29 378.17-29 394.47-2.75 394.47-29 395.97-29 395.97 0 394.47 0 378.17-26.3 378.17 0ZM401.71-29L424.21-29 424.21-27.5 413.71-27.5 413.71 0 412.21 0 412.21-27.5 401.71-27.5 401.71-29ZM448.26-3.95L449.36-2.95Q446.61 0.5 440.36 0.5 434.11 0.5 431.41-3.05 428.71-6.6 428.71-14.5 428.71-22.4 431.41-25.95 434.11-29.5 440.36-29.5L440.36-29.5Q447.61-29.5 450.21-24.75L450.21-24.75 437.96-14.5 435.61-14.5 448.26-25.05Q446.06-28 440.36-28L440.36-28Q437.86-28 436.16-27.48 434.46-26.95 433.04-25.53 431.61-24.1 430.91-21.38 430.21-18.65 430.21-14.5 430.21-10.35 430.91-7.63 431.61-4.9 433.04-3.48 434.46-2.05 436.16-1.53 437.86-1 440.36-1L440.36-1Q446.06-1 448.26-3.95L448.26-3.95Z" opacity="1" transform="matrix(1,0,0,1,0,0)" fill="#ffffff" class="wordmark-text-0" data-fill-palette-color="primary" id="text-0"></path></svg></g></svg></g></svg></g></svg></g><g transform="matrix(1,0,0,1,98.38588590751077,0)"><svg viewBox="0 0 27.228228184978434 25.026831349651918" height="25.026831349651918" width="27.228228184978434"><g><svg xmlns="http://www.w3.org/2000/svg" data-name="Layer 1" viewBox="0.47021058201789856 4.436298847198486 99.09508514404297 91.08326721191406" x="0" y="0" height="25.026831349651918" width="27.228228184978434" class="icon-icon-0" data-fill-palette-color="accent" id="icon-0"><path d="M96.32 35.74a50.82 50.82 0 0 0-7-12.28A49.29 49.29 0 0 0 38.1 6a46.56 46.56 0 0 0-13.27 5.54 47.14 47.14 0 0 0-11.17 9.12 47.17 47.17 0 0 0-8.13 12A46.88 46.88 0 0 0 1.17 46.47 42.18 42.18 0 0 0 6 75 41 41 0 0 0 28.53 93.42 41.75 41.75 0 0 0 57.68 92.3c18.45-7.63 30-29.74 22.93-49.39A31.53 31.53 0 0 0 30.26 30.67 30.75 30.75 0 0 0 20.15 57.88 21.69 21.69 0 0 0 28 71a21.43 21.43 0 0 0 14.44 4.6 21.14 21.14 0 0 0 20-19.52 12.2 12.2 0 0 0-1.71-7.79 11.42 11.42 0 0 0-6.41-4.88 11.28 11.28 0 0 0-13.48 6.21c-1.12 2.54-0.19 4.73 0.7 4.63s1.63-1.59 2.43-3.19l0.23-0.46a7.58 7.58 0 0 1 9.42-3.26 7.44 7.44 0 0 1 3.81 3.54A8.65 8.65 0 0 1 58 56.27 16.5 16.5 0 0 1 41.66 70.46c-7.89 0.07-15.1-6.36-15.81-14.07a24.87 24.87 0 0 1 1.89-11.72 25.85 25.85 0 0 1 7.17-9.55 25 25 0 0 1 22.52-4.74A24.71 24.71 0 0 1 74.11 46c2.7 7.35 1.35 16.25-2.25 23.45a33.93 33.93 0 0 1-41.53 16.8A33.93 33.93 0 0 1 11.9 70.89 35.78 35.78 0 0 1 8.06 47a41.18 41.18 0 0 1 3.76-12 41.43 41.43 0 0 1 7-10.42 41.66 41.66 0 0 1 9.71-8 41.63 41.63 0 0 1 11.62-5 52.14 52.14 0 0 1 6.24-1.23 52 52 0 0 1 6.36-0.21 42.24 42.24 0 0 1 12.55 2.16A44.68 44.68 0 0 1 86.2 26.72 45.18 45.18 0 0 1 96 50.37v0c0.16 2.16 1 3.86 2 3.87s1.63-1.81 1.56-4.18l0-0.64A52.27 52.27 0 0 0 96.32 35.74Z" fill="#ffffff" data-fill-palette-color="accent"></path></svg></g></svg></g><g></g></svg></g></svg></g></svg></g></svg></g><defs></defs></svg><rect width="320" height="360" fill="none" stroke="none" visibility="hidden"></rect></g></svg></g></svg>